<?xml version="1.0" encoding="utf-8"?>
<!-- Generator: Adobe Illustrator 16.0.0, SVG Export Plug-In . SVG Version: 6.00 Build 0)  -->
<!DOCTYPE svg PUBLIC "-//W3C//DTD SVG 1.1//EN" "http://www.w3.org/Graphics/SVG/1.1/DTD/svg11.dtd">
<svg version="1.1" id="Layer_1" xmlns="http://www.w3.org/2000/svg" xmlns:xlink="http://www.w3.org/1999/xlink" x="0px" y="0px"
	 width="429.685px" height="167.632px" viewBox="0 0 429.685 167.632" enable-background="new 0 0 429.685 167.632"
	 xml:space="preserve">
<g>
	<g>
		<path fill="#FFFFFF" d="M2.925,1.959h23.078l32.765,53.557h0.218V1.959h16.981v77.069H53.761L20.125,24.166h-0.218v54.863H2.925
			V1.959z"/>
		<path fill="#FFFFFF" d="M86.198,1.959h28.738c3.337,0,6.695,0.236,10.069,0.708c3.375,0.473,6.404,1.415,9.089,2.83
			c2.684,1.415,4.861,3.394,6.531,5.933c1.668,2.541,2.503,5.916,2.503,10.124c0,4.354-1.216,7.965-3.646,10.831
			c-2.432,2.868-5.644,4.917-9.634,6.15v0.218c2.54,0.364,4.844,1.072,6.913,2.123c2.068,1.053,3.846,2.395,5.334,4.028
			c1.486,1.633,2.629,3.538,3.429,5.715c0.798,2.177,1.197,4.5,1.197,6.967c0,4.065-0.871,7.456-2.612,10.178
			s-3.992,4.917-6.749,6.586c-2.759,1.67-5.861,2.867-9.307,3.592c-3.448,0.727-6.876,1.089-10.287,1.089H86.198V1.959z
			 M103.179,32.766h12.301c1.306,0,2.594-0.145,3.864-0.436c1.269-0.289,2.412-0.762,3.429-1.415
			c1.015-0.653,1.832-1.524,2.449-2.613c0.616-1.088,0.925-2.395,0.925-3.918c0-1.596-0.346-2.92-1.034-3.974
			c-0.691-1.051-1.579-1.867-2.667-2.449c-1.089-0.58-2.324-0.997-3.701-1.251c-1.379-0.253-2.721-0.381-4.028-0.381h-11.539V32.766
			z M103.179,64.66h15.24c1.306,0,2.629-0.145,3.973-0.436c1.342-0.289,2.558-0.797,3.647-1.523
			c1.088-0.725,1.976-1.668,2.667-2.831c0.689-1.16,1.034-2.575,1.034-4.245c0-1.813-0.454-3.283-1.36-4.409
			c-0.908-1.124-2.051-1.977-3.429-2.558c-1.379-0.58-2.868-0.979-4.463-1.197c-1.597-0.218-3.085-0.327-4.463-0.327h-12.845V64.66z
			"/>
		<path fill="#FFFFFF" d="M174.37,16.981h-21.988V1.959h60.958v15.022h-21.989v62.047H174.37V16.981z"/>
		<path fill="#FFFFFF" d="M275.06,21.989c-1.67-2.031-3.72-3.592-6.15-4.681c-2.432-1.089-5.244-1.633-8.436-1.633
			c-3.194,0-6.15,0.617-8.872,1.851c-2.722,1.235-5.081,2.958-7.076,5.17c-1.997,2.214-3.557,4.844-4.681,7.892
			c-1.126,3.048-1.688,6.351-1.688,9.906c0,3.629,0.562,6.95,1.688,9.96c1.124,3.012,2.667,5.625,4.626,7.837
			c1.959,2.214,4.262,3.938,6.912,5.17c2.648,1.235,5.497,1.851,8.545,1.851c3.483,0,6.567-0.725,9.253-2.177
			c2.684-1.451,4.898-3.483,6.64-6.096l14.151,10.559c-3.266,4.572-7.402,7.946-12.409,10.123
			c-5.007,2.178-10.161,3.266-15.458,3.266c-6.024,0-11.576-0.943-16.655-2.83c-5.081-1.886-9.47-4.589-13.171-8.109
			c-3.701-3.52-6.586-7.783-8.654-12.791c-2.068-5.007-3.102-10.595-3.102-16.764c0-6.167,1.034-11.756,3.102-16.764
			c2.068-5.007,4.953-9.27,8.654-12.791c3.701-3.519,8.091-6.222,13.171-8.11C250.53,0.944,256.082,0,262.106,0
			c2.177,0,4.444,0.201,6.803,0.599c2.357,0.4,4.681,1.034,6.967,1.905c2.286,0.871,4.48,2.032,6.586,3.483
			c2.104,1.452,3.99,3.229,5.66,5.333L275.06,21.989z"/>
	</g>
	<g>
		<path fill="#3486C7" d="M13.754,135.226v17.378H8.466v-17.378H2.282v-4.516h17.657v4.516H13.754z"/>
		<path fill="#3486C7" d="M21.577,152.604V130.71h14.719v4.453h-9.617v4.144h9.091v4.237h-9.091v4.545h10.174v4.515H21.577z"/>
		<path fill="#3486C7" d="M55.251,152.217c-1.422,0.649-3.062,0.974-4.917,0.974c-1.691,0-3.252-0.277-4.685-0.834
			c-1.433-0.557-2.675-1.346-3.726-2.365c-1.051-1.021-1.876-2.242-2.474-3.665c-0.598-1.423-0.897-2.989-0.897-4.7
			c0-1.752,0.304-3.34,0.912-4.762c0.608-1.423,1.448-2.633,2.521-3.634c1.071-0.999,2.329-1.767,3.772-2.304
			c1.443-0.535,3-0.804,4.669-0.804c1.546,0,3.066,0.273,4.561,0.819c1.494,0.547,2.706,1.346,3.633,2.396l-3.587,3.587
			c-0.495-0.681-1.145-1.185-1.948-1.515c-0.804-0.33-1.629-0.495-2.474-0.495c-0.928,0-1.778,0.17-2.551,0.511
			c-0.773,0.34-1.438,0.809-1.995,1.406s-0.989,1.305-1.299,2.118c-0.309,0.815-0.464,1.706-0.464,2.675
			c0,0.99,0.155,1.896,0.464,2.721c0.31,0.825,0.737,1.531,1.283,2.119c0.546,0.587,1.201,1.046,1.964,1.375
			c0.762,0.33,1.597,0.496,2.505,0.496c1.051,0,1.968-0.207,2.752-0.619c0.783-0.412,1.412-0.947,1.886-1.607l3.68,3.463
			C57.869,150.687,56.674,151.568,55.251,152.217z"/>
		<path fill="#3486C7" d="M74.145,152.604v-9.153H65.61v9.153h-5.288V130.71h5.288v8.287h8.535v-8.287h5.288v21.894H74.145z"/>
		<path fill="#3486C7" d="M97.089,152.604l-8.813-14.317h-0.093l0.124,14.317h-5.133V130.71h6.03l8.782,14.287h0.093l-0.124-14.287
			h5.133v21.894H97.089z"/>
		<path fill="#3486C7" d="M129.65,141.565c0,1.731-0.299,3.313-0.897,4.747c-0.598,1.432-1.428,2.658-2.489,3.68
			c-1.062,1.02-2.324,1.809-3.788,2.365c-1.464,0.557-3.051,0.834-4.762,0.834c-1.711,0-3.293-0.277-4.747-0.834
			c-1.454-0.557-2.711-1.346-3.772-2.365c-1.062-1.021-1.892-2.248-2.489-3.68c-0.598-1.434-0.897-3.016-0.897-4.747
			c0-1.752,0.299-3.335,0.897-4.747c0.598-1.412,1.427-2.613,2.489-3.602c1.062-0.99,2.319-1.752,3.772-2.289
			c1.453-0.535,3.035-0.804,4.747-0.804c1.711,0,3.298,0.269,4.762,0.804c1.463,0.537,2.726,1.299,3.788,2.289
			c1.062,0.988,1.891,2.189,2.489,3.602C129.351,138.23,129.65,139.813,129.65,141.565z M123.992,141.565
			c0-0.948-0.155-1.835-0.464-2.659c-0.31-0.824-0.737-1.531-1.283-2.119c-0.547-0.587-1.206-1.051-1.979-1.391
			c-0.773-0.34-1.624-0.511-2.551-0.511s-1.773,0.171-2.536,0.511c-0.763,0.34-1.422,0.804-1.979,1.391
			c-0.557,0.588-0.985,1.295-1.283,2.119c-0.299,0.824-0.449,1.711-0.449,2.659c0,0.989,0.155,1.901,0.464,2.736
			c0.31,0.835,0.737,1.552,1.283,2.149s1.201,1.066,1.964,1.406c0.762,0.341,1.608,0.511,2.536,0.511s1.772-0.17,2.536-0.511
			c0.762-0.34,1.422-0.809,1.979-1.406s0.989-1.314,1.299-2.149C123.837,143.466,123.992,142.554,123.992,141.565z"/>
		<path fill="#3486C7" d="M132.371,152.604V130.71h5.319v17.286h8.473v4.607H132.371z"/>
		<path fill="#3486C7" d="M170.684,141.565c0,1.731-0.299,3.313-0.897,4.747c-0.598,1.432-1.428,2.658-2.489,3.68
			c-1.062,1.02-2.324,1.809-3.788,2.365c-1.464,0.557-3.051,0.834-4.762,0.834c-1.711,0-3.293-0.277-4.747-0.834
			c-1.454-0.557-2.711-1.346-3.772-2.365c-1.062-1.021-1.892-2.248-2.489-3.68c-0.598-1.434-0.897-3.016-0.897-4.747
			c0-1.752,0.299-3.335,0.897-4.747c0.598-1.412,1.427-2.613,2.489-3.602c1.062-0.99,2.319-1.752,3.772-2.289
			c1.453-0.535,3.035-0.804,4.747-0.804c1.711,0,3.298,0.269,4.762,0.804c1.463,0.537,2.726,1.299,3.788,2.289
			c1.062,0.988,1.891,2.189,2.489,3.602C170.384,138.23,170.684,139.813,170.684,141.565z M165.025,141.565
			c0-0.948-0.155-1.835-0.464-2.659c-0.31-0.824-0.737-1.531-1.283-2.119c-0.547-0.587-1.206-1.051-1.979-1.391
			c-0.773-0.34-1.624-0.511-2.551-0.511s-1.773,0.171-2.536,0.511c-0.763,0.34-1.422,0.804-1.979,1.391
			c-0.557,0.588-0.985,1.295-1.283,2.119c-0.299,0.824-0.449,1.711-0.449,2.659c0,0.989,0.155,1.901,0.464,2.736
			c0.31,0.835,0.737,1.552,1.283,2.149s1.201,1.066,1.964,1.406c0.762,0.341,1.608,0.511,2.536,0.511s1.772-0.17,2.536-0.511
			c0.762-0.34,1.422-0.809,1.979-1.406s0.989-1.314,1.299-2.149C164.87,143.466,165.025,142.554,165.025,141.565z"/>
		<path fill="#3486C7" d="M189.098,152.634c-1.433,0.352-2.995,0.526-4.685,0.526c-1.752,0-3.366-0.278-4.839-0.835
			c-1.474-0.557-2.742-1.34-3.803-2.35c-1.062-1.01-1.892-2.222-2.489-3.634c-0.598-1.412-0.897-2.983-0.897-4.716
			c0-1.752,0.304-3.34,0.912-4.762c0.608-1.423,1.448-2.633,2.521-3.634c1.071-0.999,2.329-1.767,3.772-2.304
			c1.443-0.535,3-0.804,4.669-0.804c1.731,0,3.339,0.263,4.824,0.788s2.69,1.232,3.618,2.119l-3.339,3.803
			c-0.516-0.598-1.196-1.087-2.041-1.469c-0.846-0.381-1.804-0.572-2.875-0.572c-0.928,0-1.784,0.17-2.567,0.51
			c-0.784,0.341-1.464,0.815-2.041,1.424c-0.577,0.607-1.025,1.329-1.345,2.164c-0.32,0.834-0.479,1.747-0.479,2.736
			c0,1.01,0.144,1.938,0.433,2.783c0.288,0.846,0.716,1.572,1.283,2.18c0.567,0.608,1.268,1.082,2.103,1.423
			c0.835,0.34,1.788,0.511,2.86,0.511c0.619,0,1.206-0.047,1.763-0.14s1.072-0.242,1.546-0.448v-3.989h-4.174v-4.268h9.029v11.597
			C191.783,151.832,190.53,152.285,189.098,152.634z"/>
		<path fill="#3486C7" d="M207.048,143.328v9.276h-5.288v-9.276l-8.226-12.617h6.401l4.669,8.102l4.669-8.102h6.185L207.048,143.328
			z"/>
		<path fill="#3486C7" d="M238.96,152.217c-1.422,0.649-3.062,0.974-4.917,0.974c-1.691,0-3.252-0.277-4.685-0.834
			c-1.433-0.557-2.675-1.346-3.726-2.365c-1.051-1.021-1.876-2.242-2.474-3.665c-0.598-1.423-0.897-2.989-0.897-4.7
			c0-1.752,0.304-3.34,0.912-4.762c0.608-1.423,1.448-2.633,2.521-3.634c1.071-0.999,2.329-1.767,3.772-2.304
			c1.443-0.535,3-0.804,4.669-0.804c1.546,0,3.066,0.273,4.561,0.819c1.494,0.547,2.706,1.346,3.633,2.396l-3.587,3.587
			c-0.495-0.681-1.145-1.185-1.948-1.515c-0.804-0.33-1.629-0.495-2.474-0.495c-0.928,0-1.778,0.17-2.551,0.511
			c-0.773,0.34-1.438,0.809-1.995,1.406s-0.989,1.305-1.299,2.118c-0.309,0.815-0.464,1.706-0.464,2.675
			c0,0.99,0.155,1.896,0.464,2.721c0.31,0.825,0.737,1.531,1.283,2.119c0.546,0.587,1.201,1.046,1.964,1.375
			c0.762,0.33,1.597,0.496,2.505,0.496c1.051,0,1.968-0.207,2.752-0.619c0.783-0.412,1.412-0.947,1.886-1.607l3.68,3.463
			C241.578,150.687,240.382,151.568,238.96,152.217z"/>
		<path fill="#3486C7" d="M266.852,141.565c0,1.731-0.299,3.313-0.897,4.747c-0.598,1.432-1.428,2.658-2.489,3.68
			c-1.062,1.02-2.324,1.809-3.788,2.365c-1.464,0.557-3.051,0.834-4.762,0.834c-1.711,0-3.293-0.277-4.747-0.834
			c-1.454-0.557-2.711-1.346-3.772-2.365c-1.062-1.021-1.892-2.248-2.489-3.68c-0.598-1.434-0.897-3.016-0.897-4.747
			c0-1.752,0.299-3.335,0.897-4.747c0.598-1.412,1.427-2.613,2.489-3.602c1.062-0.99,2.319-1.752,3.772-2.289
			c1.453-0.535,3.035-0.804,4.747-0.804c1.711,0,3.298,0.269,4.762,0.804c1.463,0.537,2.726,1.299,3.788,2.289
			c1.062,0.988,1.891,2.189,2.489,3.602C266.553,138.23,266.852,139.813,266.852,141.565z M261.193,141.565
			c0-0.948-0.155-1.835-0.464-2.659c-0.31-0.824-0.737-1.531-1.283-2.119c-0.547-0.587-1.206-1.051-1.979-1.391
			c-0.773-0.34-1.624-0.511-2.551-0.511s-1.773,0.171-2.536,0.511c-0.763,0.34-1.422,0.804-1.979,1.391
			c-0.557,0.588-0.985,1.295-1.283,2.119c-0.299,0.824-0.449,1.711-0.449,2.659c0,0.989,0.155,1.901,0.464,2.736
			c0.31,0.835,0.737,1.552,1.283,2.149s1.201,1.066,1.964,1.406c0.762,0.341,1.608,0.511,2.536,0.511s1.772-0.17,2.536-0.511
			c0.762-0.34,1.422-0.809,1.979-1.406s0.989-1.314,1.299-2.149C261.039,143.466,261.193,142.554,261.193,141.565z"/>
		<path fill="#3486C7" d="M283.488,152.604l-8.813-14.317h-0.093l0.124,14.317h-5.133V130.71h6.03l8.782,14.287h0.093l-0.124-14.287
			h5.133v21.894H283.488z"/>
		<path fill="#3486C7" d="M298.455,135.226v4.514h8.473v4.36h-8.473v8.504h-5.226V130.71h14.41v4.516H298.455z"/>
		<path fill="#3486C7" d="M310.266,152.604V130.71h14.719v4.453h-9.617v4.144h9.091v4.237h-9.091v4.545h10.174v4.515H310.266z"/>
		<path fill="#3486C7" d="M339.982,152.604l-4.753-8.688h-1.802v8.688h-5.164V130.71h8.349c1.051,0,2.077,0.109,3.077,0.325
			c1,0.216,1.896,0.583,2.69,1.098c0.793,0.516,1.427,1.196,1.901,2.041c0.474,0.846,0.711,1.897,0.711,3.153
			c0,1.484-0.402,2.732-1.206,3.742c-0.804,1.01-1.917,1.732-3.339,2.164l5.721,9.37H339.982z M339.766,137.421
			c0-0.516-0.109-0.933-0.326-1.252c-0.218-0.32-0.498-0.567-0.839-0.742c-0.342-0.176-0.726-0.295-1.15-0.356
			c-0.425-0.062-0.834-0.093-1.228-0.093h-2.827v5.103h2.517c0.435,0,0.88-0.036,1.336-0.108c0.456-0.072,0.87-0.201,1.243-0.387
			s0.678-0.453,0.917-0.804S339.766,137.978,339.766,137.421z"/>
		<path fill="#3486C7" d="M347.991,152.604V130.71h14.719v4.453h-9.617v4.144h9.091v4.237h-9.091v4.545h10.174v4.515H347.991z"/>
		<path fill="#3486C7" d="M379.903,152.604l-8.813-14.317h-0.093l0.124,14.317h-5.133V130.71h6.03l8.782,14.287h0.093l-0.124-14.287
			h5.133v21.894H379.903z"/>
		<path fill="#3486C7" d="M405.321,152.217c-1.422,0.649-3.062,0.974-4.917,0.974c-1.691,0-3.252-0.277-4.685-0.834
			c-1.433-0.557-2.675-1.346-3.726-2.365c-1.051-1.021-1.876-2.242-2.474-3.665c-0.598-1.423-0.897-2.989-0.897-4.7
			c0-1.752,0.304-3.34,0.912-4.762c0.608-1.423,1.448-2.633,2.521-3.634c1.071-0.999,2.329-1.767,3.772-2.304
			c1.443-0.535,3-0.804,4.669-0.804c1.546,0,3.066,0.273,4.561,0.819c1.494,0.547,2.706,1.346,3.633,2.396l-3.587,3.587
			c-0.495-0.681-1.145-1.185-1.948-1.515c-0.804-0.33-1.629-0.495-2.474-0.495c-0.928,0-1.778,0.17-2.551,0.511
			c-0.773,0.34-1.438,0.809-1.995,1.406s-0.989,1.305-1.299,2.118c-0.309,0.815-0.464,1.706-0.464,2.675
			c0,0.99,0.155,1.896,0.464,2.721c0.31,0.825,0.737,1.531,1.283,2.119c0.546,0.587,1.201,1.046,1.964,1.375
			c0.762,0.33,1.597,0.496,2.505,0.496c1.051,0,1.968-0.207,2.752-0.619c0.783-0.412,1.412-0.947,1.886-1.607l3.68,3.463
			C407.938,150.687,406.743,151.568,405.321,152.217z"/>
		<path fill="#3486C7" d="M410.392,152.604V130.71h14.719v4.453h-9.617v4.144h9.091v4.237h-9.091v4.545h10.174v4.515H410.392z"/>
	</g>
	<g>
		<path fill="#3486C7" d="M17.263,118.945l-9.407-15.282H7.757l0.132,15.282H2.41V95.576h6.437l9.374,15.25h0.099l-0.132-15.25
			h5.479v23.369H17.263z"/>
		<path fill="#3486C7" d="M44.329,118.945l-1.815-4.588h-9.044l-1.716,4.588h-6.139l9.803-23.369h5.479l9.704,23.369H44.329z
			 M38.057,101.814l-2.97,8.021h5.875L38.057,101.814z"/>
		<path fill="#3486C7" d="M61.228,100.394v18.551h-5.644v-18.551h-6.602v-4.818H67.83v4.818H61.228z"/>
		<path fill="#3486C7" d="M71.064,118.945V95.576h5.677v23.369H71.064z"/>
		<path fill="#3486C7" d="M105.26,107.162c0,1.848-0.319,3.537-0.957,5.066c-0.639,1.529-1.524,2.838-2.657,3.928
			c-1.134,1.09-2.481,1.931-4.043,2.525c-1.562,0.594-3.257,0.891-5.083,0.891c-1.827,0-3.516-0.297-5.067-0.891
			c-1.551-0.595-2.894-1.436-4.027-2.525c-1.134-1.09-2.019-2.398-2.657-3.928s-0.957-3.219-0.957-5.066
			c0-1.871,0.319-3.56,0.957-5.066c0.638-1.508,1.523-2.789,2.657-3.846c1.133-1.057,2.476-1.871,4.027-2.443
			c1.551-0.571,3.24-0.857,5.067-0.857c1.826,0,3.521,0.286,5.083,0.857c1.562,0.572,2.91,1.387,4.043,2.443
			c1.133,1.057,2.019,2.338,2.657,3.846C104.94,103.602,105.26,105.291,105.26,107.162z M99.219,107.162
			c0-1.012-0.165-1.959-0.495-2.839s-0.787-1.634-1.37-2.261c-0.583-0.627-1.287-1.123-2.112-1.486s-1.733-0.544-2.723-0.544
			s-1.893,0.181-2.707,0.544c-0.814,0.363-1.519,0.859-2.113,1.486s-1.051,1.381-1.37,2.261c-0.319,0.88-0.479,1.827-0.479,2.839
			c0,1.056,0.165,2.029,0.495,2.921s0.786,1.655,1.37,2.294c0.583,0.639,1.282,1.139,2.096,1.502
			c0.813,0.363,1.716,0.545,2.707,0.545s1.892-0.182,2.707-0.545c0.814-0.363,1.518-0.863,2.112-1.502s1.056-1.402,1.386-2.294
			S99.219,108.217,99.219,107.162z"/>
		<path fill="#3486C7" d="M123.842,118.945l-9.407-15.282h-0.099l0.132,15.282h-5.479V95.576h6.437l9.374,15.25h0.099l-0.132-15.25
			h5.479v23.369H123.842z"/>
		<path fill="#3486C7" d="M150.908,118.945l-1.815-4.588h-9.044l-1.716,4.588h-6.139l9.803-23.369h5.479l9.704,23.369H150.908z
			 M144.637,101.814l-2.97,8.021h5.875L144.637,101.814z"/>
		<path fill="#3486C7" d="M159.127,118.945V95.576h5.677v18.451h9.044v4.918H159.127z"/>
		<path fill="#3486C7" d="M204.28,112.146c0,1.275-0.253,2.349-0.759,3.217c-0.507,0.87-1.178,1.568-2.014,2.097
			c-0.836,0.528-1.788,0.907-2.855,1.139c-1.068,0.231-2.162,0.347-3.284,0.347h-9.308V95.576h9.308c0.902,0,1.826,0.094,2.772,0.28
			c0.946,0.188,1.804,0.507,2.575,0.958c0.77,0.451,1.397,1.062,1.881,1.832c0.484,0.77,0.726,1.748,0.726,2.938
			c0,1.298-0.352,2.371-1.056,3.218c-0.705,0.847-1.629,1.458-2.772,1.832v0.065c0.66,0.111,1.281,0.314,1.865,0.611
			c0.583,0.297,1.089,0.676,1.518,1.139c0.429,0.462,0.77,1.002,1.023,1.617C204.154,110.682,204.28,111.375,204.28,112.146z
			 M197.877,102.342c0-0.792-0.303-1.37-0.908-1.733c-0.605-0.363-1.502-0.545-2.69-0.545h-2.772v4.82h3.037
			c1.056,0,1.875-0.215,2.459-0.645C197.585,103.811,197.877,103.179,197.877,102.342z M198.636,111.617
			c0-0.968-0.363-1.639-1.089-2.014c-0.726-0.373-1.695-0.561-2.904-0.561h-3.136v5.348h3.168c0.44,0,0.896-0.039,1.37-0.115
			c0.473-0.078,0.902-0.215,1.288-0.413c0.385-0.198,0.698-0.479,0.94-0.842S198.636,112.189,198.636,111.617z"/>
		<path fill="#3486C7" d="M227.105,113.977c-0.474,1.155-1.15,2.146-2.03,2.971c-0.88,0.825-1.942,1.469-3.185,1.931
			c-1.243,0.463-2.624,0.693-4.143,0.693c-1.54,0-2.927-0.23-4.159-0.693c-1.232-0.462-2.277-1.105-3.136-1.931
			s-1.518-1.815-1.98-2.971c-0.462-1.155-0.693-2.437-0.693-3.845V95.576h5.611v14.094c0,0.639,0.083,1.244,0.248,1.816
			s0.418,1.084,0.759,1.534c0.341,0.451,0.792,0.809,1.354,1.073c0.561,0.264,1.238,0.396,2.03,0.396s1.469-0.132,2.03-0.396
			c0.562-0.265,1.018-0.622,1.37-1.073c0.352-0.45,0.605-0.962,0.759-1.534c0.153-0.572,0.231-1.178,0.231-1.816V95.576h5.644
			v14.557C227.814,111.541,227.578,112.822,227.105,113.977z"/>
		<path fill="#3486C7" d="M244.714,101.649c-0.484-0.616-1.117-1.106-1.898-1.469c-0.781-0.363-1.535-0.544-2.261-0.544
			c-0.375,0-0.754,0.032-1.139,0.098c-0.385,0.066-0.732,0.193-1.04,0.381c-0.309,0.187-0.567,0.428-0.776,0.726
			c-0.209,0.297-0.313,0.677-0.313,1.139c0,0.396,0.083,0.726,0.248,0.99s0.407,0.495,0.726,0.693
			c0.319,0.198,0.698,0.38,1.139,0.544c0.44,0.166,0.935,0.336,1.485,0.512c0.792,0.265,1.618,0.557,2.476,0.875
			c0.858,0.319,1.639,0.742,2.344,1.271c0.704,0.527,1.287,1.183,1.75,1.963c0.462,0.781,0.693,1.756,0.693,2.922
			c0,1.342-0.248,2.503-0.743,3.482c-0.495,0.979-1.161,1.787-1.997,2.426s-1.793,1.111-2.872,1.419s-2.19,0.462-3.333,0.462
			c-1.673,0-3.29-0.291-4.852-0.875c-1.563-0.582-2.861-1.413-3.895-2.491l3.697-3.763c0.572,0.704,1.326,1.293,2.261,1.766
			c0.935,0.474,1.865,0.709,2.789,0.709c0.417,0,0.825-0.043,1.221-0.131s0.743-0.231,1.04-0.43c0.297-0.197,0.533-0.462,0.71-0.792
			c0.176-0.33,0.264-0.726,0.264-1.188c0-0.439-0.11-0.814-0.33-1.122c-0.22-0.308-0.534-0.589-0.94-0.842
			c-0.408-0.253-0.914-0.483-1.519-0.693c-0.605-0.208-1.293-0.435-2.063-0.677c-0.748-0.242-1.48-0.527-2.195-0.857
			c-0.715-0.33-1.354-0.754-1.915-1.271c-0.561-0.517-1.012-1.144-1.353-1.881c-0.341-0.737-0.512-1.635-0.512-2.69
			c0-1.298,0.264-2.409,0.792-3.333c0.528-0.925,1.222-1.684,2.08-2.278c0.858-0.595,1.826-1.028,2.905-1.304
			c1.078-0.275,2.167-0.412,3.268-0.412c1.32,0,2.668,0.242,4.043,0.726c1.375,0.484,2.58,1.2,3.614,2.146L244.714,101.649z"/>
		<path fill="#3486C7" d="M251.876,118.945V95.576h5.677v23.369H251.876z"/>
		<path fill="#3486C7" d="M277.226,118.945l-9.407-15.282h-0.099l0.132,15.282h-5.479V95.576h6.437l9.374,15.25h0.099l-0.132-15.25
			h5.479v23.369H277.226z"/>
		<path fill="#3486C7" d="M288.448,118.945V95.576h15.711v4.753h-10.265v4.423h9.704v4.521h-9.704v4.854h10.859v4.818H288.448z"/>
		<path fill="#3486C7" d="M320.828,101.649c-0.484-0.616-1.117-1.106-1.898-1.469c-0.781-0.363-1.535-0.544-2.261-0.544
			c-0.375,0-0.754,0.032-1.139,0.098c-0.385,0.066-0.732,0.193-1.04,0.381c-0.309,0.187-0.567,0.428-0.776,0.726
			c-0.209,0.297-0.313,0.677-0.313,1.139c0,0.396,0.083,0.726,0.248,0.99s0.407,0.495,0.726,0.693
			c0.319,0.198,0.698,0.38,1.139,0.544c0.44,0.166,0.935,0.336,1.485,0.512c0.792,0.265,1.618,0.557,2.476,0.875
			c0.858,0.319,1.639,0.742,2.344,1.271c0.704,0.527,1.287,1.183,1.75,1.963c0.462,0.781,0.693,1.756,0.693,2.922
			c0,1.342-0.248,2.503-0.743,3.482c-0.495,0.979-1.161,1.787-1.997,2.426s-1.793,1.111-2.872,1.419s-2.19,0.462-3.333,0.462
			c-1.673,0-3.29-0.291-4.852-0.875c-1.563-0.582-2.861-1.413-3.895-2.491l3.697-3.763c0.572,0.704,1.326,1.293,2.261,1.766
			c0.935,0.474,1.865,0.709,2.789,0.709c0.417,0,0.825-0.043,1.221-0.131s0.743-0.231,1.04-0.43c0.297-0.197,0.533-0.462,0.71-0.792
			c0.176-0.33,0.264-0.726,0.264-1.188c0-0.439-0.11-0.814-0.33-1.122c-0.22-0.308-0.534-0.589-0.94-0.842
			c-0.408-0.253-0.914-0.483-1.519-0.693c-0.605-0.208-1.293-0.435-2.063-0.677c-0.748-0.242-1.48-0.527-2.195-0.857
			c-0.715-0.33-1.354-0.754-1.915-1.271c-0.561-0.517-1.012-1.144-1.353-1.881c-0.341-0.737-0.512-1.635-0.512-2.69
			c0-1.298,0.264-2.409,0.792-3.333c0.528-0.925,1.222-1.684,2.08-2.278c0.858-0.595,1.826-1.028,2.905-1.304
			c1.078-0.275,2.167-0.412,3.268-0.412c1.32,0,2.668,0.242,4.043,0.726c1.375,0.484,2.58,1.2,3.614,2.146L320.828,101.649z"/>
		<path fill="#3486C7" d="M340.335,101.649c-0.484-0.616-1.117-1.106-1.898-1.469c-0.781-0.363-1.535-0.544-2.261-0.544
			c-0.375,0-0.754,0.032-1.139,0.098c-0.385,0.066-0.732,0.193-1.04,0.381c-0.309,0.187-0.567,0.428-0.776,0.726
			c-0.209,0.297-0.313,0.677-0.313,1.139c0,0.396,0.083,0.726,0.248,0.99s0.407,0.495,0.726,0.693
			c0.319,0.198,0.698,0.38,1.139,0.544c0.44,0.166,0.935,0.336,1.485,0.512c0.792,0.265,1.618,0.557,2.476,0.875
			c0.858,0.319,1.639,0.742,2.344,1.271c0.704,0.527,1.287,1.183,1.75,1.963c0.462,0.781,0.693,1.756,0.693,2.922
			c0,1.342-0.248,2.503-0.743,3.482c-0.495,0.979-1.161,1.787-1.997,2.426s-1.793,1.111-2.872,1.419s-2.19,0.462-3.333,0.462
			c-1.673,0-3.29-0.291-4.852-0.875c-1.563-0.582-2.861-1.413-3.895-2.491l3.697-3.763c0.572,0.704,1.326,1.293,2.261,1.766
			c0.935,0.474,1.865,0.709,2.789,0.709c0.417,0,0.825-0.043,1.221-0.131s0.743-0.231,1.04-0.43c0.297-0.197,0.533-0.462,0.71-0.792
			c0.176-0.33,0.264-0.726,0.264-1.188c0-0.439-0.11-0.814-0.33-1.122c-0.22-0.308-0.534-0.589-0.94-0.842
			c-0.408-0.253-0.914-0.483-1.519-0.693c-0.605-0.208-1.293-0.435-2.063-0.677c-0.748-0.242-1.48-0.527-2.195-0.857
			c-0.715-0.33-1.354-0.754-1.915-1.271c-0.561-0.517-1.012-1.144-1.353-1.881c-0.341-0.737-0.512-1.635-0.512-2.69
			c0-1.298,0.264-2.409,0.792-3.333c0.528-0.925,1.222-1.684,2.08-2.278c0.858-0.595,1.826-1.028,2.905-1.304
			c1.078-0.275,2.167-0.412,3.268-0.412c1.32,0,2.668,0.242,4.043,0.726c1.375,0.484,2.58,1.2,3.614,2.146L340.335,101.649z"/>
		<path fill="#3486C7" d="M371.592,118.945l-1.815-4.588h-9.044l-1.716,4.588h-6.139l9.803-23.369h5.479l9.704,23.369H371.592z
			 M365.321,101.814l-2.97,8.021h5.875L365.321,101.814z"/>
		<path fill="#3486C7" d="M394.664,118.945l-9.407-15.282h-0.099l0.132,15.282h-5.479V95.576h6.437l9.374,15.25h0.099l-0.132-15.25
			h5.479v23.369H394.664z"/>
		<path fill="#3486C7" d="M427.705,107.195c0,2.046-0.38,3.812-1.139,5.297c-0.759,1.485-1.761,2.707-3.004,3.664
			c-1.244,0.957-2.646,1.662-4.208,2.112c-1.562,0.451-3.147,0.677-4.753,0.677h-8.714V95.576h8.45c1.65,0,3.279,0.193,4.885,0.578
			c1.606,0.385,3.037,1.022,4.291,1.914c1.254,0.891,2.266,2.085,3.037,3.581C427.319,103.146,427.705,104.994,427.705,107.195z
			 M421.829,107.195c0-1.32-0.214-2.416-0.644-3.285s-1.001-1.562-1.716-2.079c-0.715-0.517-1.53-0.886-2.443-1.106
			c-0.913-0.219-1.854-0.33-2.822-0.33h-2.806v13.666h2.673c1.012,0,1.986-0.115,2.921-0.347c0.935-0.231,1.76-0.61,2.476-1.14
			c0.715-0.527,1.287-1.231,1.716-2.111C421.615,109.582,421.829,108.493,421.829,107.195z"/>
	</g>
	<polygon fill="#3486C7" points="296.489,2.068 311.06,2.068 311.06,18.316 296.489,28.125 	"/>
	<g>
		<path fill="#FFFFFF" d="M343.967,20.247L328.51,33.854l-9.253-10.668l25.146-21.227h15.24v77.069h-15.675V20.247z"/>
		<path fill="#FFFFFF" d="M425.172,16.328h-30.588l-0.327,11.865c1.668-0.58,3.955-0.871,6.858-0.871
			c3.918,0,7.511,0.582,10.776,1.742c3.266,1.162,6.077,2.849,8.437,5.062c2.357,2.215,4.191,4.898,5.497,8.055
			c1.306,3.157,1.959,6.695,1.959,10.614c0,4.354-0.745,8.237-2.231,11.647c-1.488,3.412-3.538,6.296-6.15,8.654
			c-2.613,2.359-5.715,4.155-9.307,5.389c-3.592,1.232-7.494,1.851-11.702,1.851c-6.677,0-12.265-1.633-16.764-4.898
			c-4.5-3.266-7.584-8.2-9.252-14.805l17.09-3.919c0.435,2.759,1.595,4.99,3.483,6.695c1.886,1.706,4.245,2.558,7.075,2.558
			c3.483,0,6.259-1.089,8.328-3.266c2.068-2.177,3.103-4.935,3.103-8.273c0-2.54-0.527-4.626-1.579-6.259
			c-1.053-1.633-2.432-2.939-4.136-3.919c-1.706-0.979-3.611-1.65-5.715-2.014c-2.105-0.362-4.209-0.544-6.313-0.544
			c-2.686,0-5.388,0.255-8.109,0.762c-2.722,0.508-5.353,1.197-7.892,2.068l0.871-42.562h46.59V16.328z"/>
	</g>
</g>
<g>
</g>
<g>
</g>
<g>
</g>
<g>
</g>
</svg>
